<svg xmlns="http://www.w3.org/2000/svg" viewBox="0 0 48 56" fill="none" role="img" aria-label="IntelliGen LMS">
  <defs>
    <linearGradient id="pg1" x1="10" y1="28" x2="24" y2="40">
      <stop offset="0%" stop-color="#84cc16"/>
      <stop offset="100%" stop-color="#22d3ee"/>
    </linearGradient>
    <linearGradient id="pg2" x1="10" y1="38" x2="24" y2="46">
      <stop offset="0%" stop-color="#059669"/>
      <stop offset="100%" stop-color="#0891b2"/>
    </linearGradient>
    <linearGradient id="pg3" x1="24" y1="28" x2="38" y2="40">
      <stop offset="0%" stop-color="#22d3ee"/>
      <stop offset="100%" stop-color="#0056d2"/>
    </linearGradient>
    <linearGradient id="pg4" x1="24" y1="38" x2="38" y2="46">
      <stop offset="0%" stop-color="#0056d2"/>
      <stop offset="100%" stop-color="#7c3aed"/>
    </linearGradient>
    <filter id="text-shadow" x="-35%" y="-45%" width="170%" height="190%">
      <feDropShadow dx="0" dy="1" stdDeviation="0.7" flood-color="#003d96" flood-opacity="0.3"/>
    </filter>
  </defs>
  <path d="M24 39 Q11 34 9.5 28" stroke="url(#pg1)" stroke-width="3.4" stroke-linecap="round" fill="none"/>
  <path d="M24 39 Q11 41.5 9.5 46.5" stroke="url(#pg2)" stroke-width="3.4" stroke-linecap="round" fill="none"/>
  <path d="M24 39 Q37 34 38.5 28" stroke="url(#pg3)" stroke-width="3.4" stroke-linecap="round" fill="none"/>
  <path d="M24 39 Q37 41.5 38.5 46.5" stroke="url(#pg4)" stroke-width="3.4" stroke-linecap="round" fill="none"/>
  <path d="M21 39 C21 33.5 25.5 29.5 31.5 29.5 C34.5 29.5 36.5 31.5 36.5 34.5 C36.5 37 34.5 39 31.5 39.5 C28.5 40 25.5 39.5 23.5 38.5 C22 39 21 39 21 39 Z" fill="none" stroke="#003d96" stroke-width="1.15" stroke-linejoin="round"/>
  <path d="M31 32 C33 31 35 32.5 35.5 34.5 C35 33 33.5 32 31.5 32.2 Z" fill="#004bb8"/>
  <rect x="11" y="20" width="2.6" height="2.6" rx="0.35" fill="#a855f7"/>
  <rect x="14" y="17" width="2.2" height="2.2" rx="0.35" fill="#f97316"/>
  <rect x="17" y="15" width="2.8" height="2.8" rx="0.35" fill="#84cc16"/>
  <rect x="13" y="23" width="2" height="2" rx="0.35" fill="#38bdf8"/>
  <rect x="16" y="21" width="2.4" height="2.4" rx="0.35" fill="#0056d2"/>
  <rect x="19" y="18" width="2.2" height="2.2" rx="0.35" fill="#eab308"/>
  <g filter="url(#text-shadow)">
    <text x="24" y="51.5" text-anchor="middle" font-family="'Source Sans 3', system-ui, sans-serif" font-size="9.5" font-weight="800" letter-spacing="-0.03em">
      <tspan fill="#0c2d5e">Intelli</tspan>
      <tspan fill="#003d96">Gen</tspan>
    </text>
    <line x1="11" y1="53.8" x2="16" y2="53.8" stroke="#0891b2" stroke-width="0.65" stroke-opacity="0.85" stroke-linecap="round"/>
    <text x="24" y="54.8" text-anchor="middle" font-family="'Source Sans 3', system-ui, sans-serif" font-size="4.2" font-weight="700" letter-spacing="0.18em" fill="#0891b2">LMS</text>
    <line x1="32" y1="53.8" x2="37" y2="53.8" stroke="#0891b2" stroke-width="0.65" stroke-opacity="0.85" stroke-linecap="round"/>
  </g>
</svg>
